<?xml version="1.0" encoding="UTF-8" standalone="no"?>
<!DOCTYPE svg PUBLIC "-//W3C//DTD SVG 1.1//EN"
 "http://www.w3.org/Graphics/SVG/1.1/DTD/svg11.dtd">
<!-- Generated by graphviz version 14.1.5 (0)
 -->
<!-- Title: ga_flowchart Pages: 1 -->
<svg width="3010pt" height="6384pt"
 viewBox="0.00 0.00 3010.00 6384.00" xmlns="http://www.w3.org/2000/svg" xmlns:xlink="http://www.w3.org/1999/xlink">
<g id="graph0" class="graph" transform="scale(4.16667 4.16667) rotate(0) translate(4 1528.1)">
<title>ga_flowchart</title>
<polygon fill="white" stroke="none" points="-4,4 -4,-1528.1 718.39,-1528.1 718.39,4 -4,4"/>
<!-- n_start -->
<g id="node1" class="node">
<title>n_start</title>
<ellipse fill="#d9d9d9" stroke="black" cx="365.14" cy="-1506.1" rx="31.88" ry="18"/>
<text xml:space="preserve" text-anchor="middle" x="365.14" y="-1502.4" font-family="Helvetica,sans-Serif" font-size="11.00">START</text>
</g>
<!-- n_init_check -->
<g id="node3" class="node">
<title>n_init_check</title>
<polygon fill="#ffe0b3" stroke="black" points="365.14,-1447.1 202.36,-1411.46 365.14,-1375.82 527.92,-1411.46 365.14,-1447.1"/>
<text xml:space="preserve" text-anchor="middle" x="365.14" y="-1414.51" font-family="Helvetica,sans-Serif" font-size="11.00">mode == &quot;improve&quot;</text>
<text xml:space="preserve" text-anchor="middle" x="365.14" y="-1401.01" font-family="Helvetica,sans-Serif" font-size="11.00">AND best_line.json exists?</text>
</g>
<!-- n_start&#45;&gt;n_init_check -->
<g id="edge1" class="edge">
<title>n_start&#45;&gt;n_init_check</title>
<path fill="none" stroke="black" d="M365.14,-1487.85C365.14,-1487.85 365.14,-1458.8 365.14,-1458.8"/>
<polygon fill="black" stroke="black" points="368.64,-1458.8 365.14,-1448.8 361.64,-1458.8 368.64,-1458.8"/>
</g>
<!-- n_end -->
<g id="node2" class="node">
<title>n_end</title>
<ellipse fill="#d9d9d9" stroke="black" cx="525.14" cy="-24.57" rx="27" ry="18"/>
<text xml:space="preserve" text-anchor="middle" x="525.14" y="-20.87" font-family="Helvetica,sans-Serif" font-size="11.00">END</text>
</g>
<!-- n_seed -->
<g id="node4" class="node">
<title>n_seed</title>
<polygon fill="#cce5ff" stroke="black" points="349.9,-1323.07 30.38,-1323.07 30.38,-1260.43 349.9,-1260.43 349.9,-1323.07"/>
<text xml:space="preserve" text-anchor="middle" x="190.14" y="-1308.3" font-family="Helvetica,sans-Serif" font-size="11.00">Seed population from saved chromosome</text>
<text xml:space="preserve" text-anchor="middle" x="190.14" y="-1294.8" font-family="Helvetica,sans-Serif" font-size="11.00">pop[0] = exact saved chromosome (elitism seed)</text>
<text xml:space="preserve" text-anchor="middle" x="190.14" y="-1281.3" font-family="Helvetica,sans-Serif" font-size="11.00">pop[1…] = chromosome + N(0, 0.10), clipped to [0, 1]</text>
<text xml:space="preserve" text-anchor="middle" x="190.14" y="-1267.8" font-family="Helvetica,sans-Serif" font-size="11.00">Size: POPULATION_SIZE = 100</text>
</g>
<!-- n_init_check&#45;&gt;n_seed -->
<g id="edge2" class="edge">
<title>n_init_check&#45;&gt;n_seed</title>
<path fill="none" stroke="black" d="M276.13,-1394.81C276.13,-1394.81 276.13,-1335.04 276.13,-1335.04"/>
<polygon fill="black" stroke="black" points="279.63,-1335.04 276.13,-1325.04 272.63,-1335.04 279.63,-1335.04"/>
<text xml:space="preserve" text-anchor="middle" x="345.14" y="-1346.32" font-family="Helvetica,sans-Serif" font-size="10.00">YES</text>
</g>
<!-- n_random_init -->
<g id="node5" class="node">
<title>n_random_init</title>
<polygon fill="#cce5ff" stroke="black" points="696.4,-1316.32 385.88,-1316.32 385.88,-1267.18 696.4,-1267.18 696.4,-1316.32"/>
<text xml:space="preserve" text-anchor="middle" x="541.14" y="-1301.55" font-family="Helvetica,sans-Serif" font-size="11.00">Initialise random population</text>
<text xml:space="preserve" text-anchor="middle" x="541.14" y="-1288.05" font-family="Helvetica,sans-Serif" font-size="11.00">POPULATION_SIZE = 100 individuals</text>
<text xml:space="preserve" text-anchor="middle" x="541.14" y="-1274.55" font-family="Helvetica,sans-Serif" font-size="11.00">Each individual: N_SECTIONS = 50 genes ∈ [0.0, 1.0]</text>
</g>
<!-- n_init_check&#45;&gt;n_random_init -->
<g id="edge3" class="edge">
<title>n_init_check&#45;&gt;n_random_init</title>
<path fill="none" stroke="black" d="M456.9,-1395.81C456.9,-1395.81 456.9,-1328.08 456.9,-1328.08"/>
<polygon fill="black" stroke="black" points="460.4,-1328.08 456.9,-1318.08 453.4,-1328.08 460.4,-1328.08"/>
<text xml:space="preserve" text-anchor="middle" x="475.64" y="-1346.32" font-family="Helvetica,sans-Serif" font-size="10.00">NO</text>
</g>
<!-- n_eval -->
<g id="node6" class="node">
<title>n_eval</title>
<polygon fill="#cce5ff" stroke="black" points="513.65,-1219.43 216.62,-1219.43 216.62,-1021.79 513.65,-1021.79 513.65,-1219.43"/>
<text xml:space="preserve" text-anchor="middle" x="365.14" y="-1204.66" font-family="Helvetica,sans-Serif" font-size="11.00">Evaluate fitness for each individual</text>
<text xml:space="preserve" text-anchor="middle" x="365.14" y="-1191.16" font-family="Helvetica,sans-Serif" font-size="11.00">─────────────────────────────────────────</text>
<text xml:space="preserve" text-anchor="middle" x="365.14" y="-1177.66" font-family="Helvetica,sans-Serif" font-size="11.00">1. reconstruct_trajectory(chromosome, track)</text>
<text xml:space="preserve" text-anchor="middle" x="365.14" y="-1164.16" font-family="Helvetica,sans-Serif" font-size="11.00"> &#160;&#160;→ periodic cubic spline → 150&#45;point trajectory</text>
<text xml:space="preserve" text-anchor="middle" x="365.14" y="-1150.66" font-family="Helvetica,sans-Serif" font-size="11.00">2. compute_speed_profile(trajectory)</text>
<text xml:space="preserve" text-anchor="middle" x="365.14" y="-1137.16" font-family="Helvetica,sans-Serif" font-size="11.00"> &#160;&#160;v_corner = √(μ·g·R), &#160;μ=0.7, g=9.81</text>
<text xml:space="preserve" text-anchor="middle" x="365.14" y="-1123.66" font-family="Helvetica,sans-Serif" font-size="11.00"> &#160;&#160;forward pass: enforce MAX_ACCEL = 8.0 m/s²</text>
<text xml:space="preserve" text-anchor="middle" x="365.14" y="-1110.16" font-family="Helvetica,sans-Serif" font-size="11.00"> &#160;&#160;backward pass: enforce MAX_DECEL = 15.0 m/s²</text>
<text xml:space="preserve" text-anchor="middle" x="365.14" y="-1096.66" font-family="Helvetica,sans-Serif" font-size="11.00"> &#160;&#160;(repeated SPEED_PROFILE_PASSES = 3 times)</text>
<text xml:space="preserve" text-anchor="middle" x="365.14" y="-1083.16" font-family="Helvetica,sans-Serif" font-size="11.00">3. lap_time = Σ ds / v_avg</text>
<text xml:space="preserve" text-anchor="middle" x="365.14" y="-1069.66" font-family="Helvetica,sans-Serif" font-size="11.00">4. boundary_penalty:</text>
<text xml:space="preserve" text-anchor="middle" x="365.14" y="-1056.16" font-family="Helvetica,sans-Serif" font-size="11.00"> &#160;&#160;gradient: 500 s/m × excess metres off&#45;corridor</text>
<text xml:space="preserve" text-anchor="middle" x="365.14" y="-1042.66" font-family="Helvetica,sans-Serif" font-size="11.00"> &#160;&#160;flat: 1 000 s per off&#45;track trajectory point</text>
<text xml:space="preserve" text-anchor="middle" x="365.14" y="-1029.16" font-family="Helvetica,sans-Serif" font-size="11.00">5. fitness = lap_time + boundary_penalty</text>
</g>
<!-- n_seed&#45;&gt;n_eval -->
<g id="edge4" class="edge">
<title>n_seed&#45;&gt;n_eval</title>
<path fill="none" stroke="black" d="M283.26,-1259.96C283.26,-1259.96 283.26,-1231.34 283.26,-1231.34"/>
<polygon fill="black" stroke="black" points="286.77,-1231.34 283.27,-1221.34 279.77,-1231.34 286.77,-1231.34"/>
</g>
<!-- n_random_init&#45;&gt;n_eval -->
<g id="edge5" class="edge">
<title>n_random_init&#45;&gt;n_eval</title>
<path fill="none" stroke="black" d="M449.76,-1266.86C449.76,-1266.86 449.76,-1231.38 449.76,-1231.38"/>
<polygon fill="black" stroke="black" points="453.27,-1231.38 449.77,-1221.38 446.27,-1231.38 453.27,-1231.38"/>
</g>
<!-- n_update_best -->
<g id="node7" class="node">
<title>n_update_best</title>
<polygon fill="#cce5ff" stroke="black" points="508.78,-980.79 221.5,-980.79 221.5,-918.15 508.78,-918.15 508.78,-980.79"/>
<text xml:space="preserve" text-anchor="middle" x="365.14" y="-966.02" font-family="Helvetica,sans-Serif" font-size="11.00">Update running best</text>
<text xml:space="preserve" text-anchor="middle" x="365.14" y="-952.52" font-family="Helvetica,sans-Serif" font-size="11.00">if gen_best &lt; best_fitness:</text>
<text xml:space="preserve" text-anchor="middle" x="365.14" y="-939.02" font-family="Helvetica,sans-Serif" font-size="11.00"> &#160;&#160;&#160;best_fitness = gen_best</text>
<text xml:space="preserve" text-anchor="middle" x="365.14" y="-925.52" font-family="Helvetica,sans-Serif" font-size="11.00"> &#160;&#160;&#160;best_chromosome = population[gen_best_idx]</text>
</g>
<!-- n_eval&#45;&gt;n_update_best -->
<g id="edge6" class="edge">
<title>n_eval&#45;&gt;n_update_best</title>
<path fill="none" stroke="black" d="M365.14,-1021.55C365.14,-1021.55 365.14,-992.55 365.14,-992.55"/>
<polygon fill="black" stroke="black" points="368.64,-992.55 365.14,-982.55 361.64,-992.55 368.64,-992.55"/>
</g>
<!-- n_write_json -->
<g id="node8" class="node">
<title>n_write_json</title>
<polygon fill="#cce5ff" stroke="black" points="490.03,-877.15 240.25,-877.15 240.25,-814.51 490.03,-814.51 490.03,-877.15"/>
<text xml:space="preserve" text-anchor="middle" x="365.14" y="-862.38" font-family="Helvetica,sans-Serif" font-size="11.00">Write current_best.json</text>
<text xml:space="preserve" text-anchor="middle" x="365.14" y="-848.88" font-family="Helvetica,sans-Serif" font-size="11.00">(generation, total_generations, best_time,</text>
<text xml:space="preserve" text-anchor="middle" x="365.14" y="-835.38" font-family="Helvetica,sans-Serif" font-size="11.00"> waypoints, status = &quot;evolving&quot;)</text>
<text xml:space="preserve" text-anchor="middle" x="365.14" y="-821.88" font-family="Helvetica,sans-Serif" font-size="11.00">atomic: write → .tmp → rename</text>
</g>
<!-- n_update_best&#45;&gt;n_write_json -->
<g id="edge7" class="edge">
<title>n_update_best&#45;&gt;n_write_json</title>
<path fill="none" stroke="black" d="M365.14,-917.81C365.14,-917.81 365.14,-888.81 365.14,-888.81"/>
<polygon fill="black" stroke="black" points="368.64,-888.81 365.14,-878.81 361.64,-888.81 368.64,-888.81"/>
</g>
<!-- n_gen_check -->
<g id="node9" class="node">
<title>n_gen_check</title>
<polygon fill="#ffe0b3" stroke="black" points="365.14,-773.51 231.61,-737.87 365.14,-702.23 498.67,-737.87 365.14,-773.51"/>
<text xml:space="preserve" text-anchor="middle" x="365.14" y="-740.92" font-family="Helvetica,sans-Serif" font-size="11.00">generation ≥</text>
<text xml:space="preserve" text-anchor="middle" x="365.14" y="-727.42" font-family="Helvetica,sans-Serif" font-size="11.00">GENERATIONS (200)?</text>
</g>
<!-- n_write_json&#45;&gt;n_gen_check -->
<g id="edge8" class="edge">
<title>n_write_json&#45;&gt;n_gen_check</title>
<path fill="none" stroke="black" d="M365.14,-814.02C365.14,-814.02 365.14,-785.51 365.14,-785.51"/>
<polygon fill="black" stroke="black" points="368.64,-785.51 365.14,-775.51 361.64,-785.51 368.64,-785.51"/>
</g>
<!-- n_elites -->
<g id="node10" class="node">
<title>n_elites</title>
<polygon fill="#ccffcc" stroke="black" points="348.9,-636.73 71.38,-636.73 71.38,-587.59 348.9,-587.59 348.9,-636.73"/>
<text xml:space="preserve" text-anchor="middle" x="210.14" y="-621.96" font-family="Helvetica,sans-Serif" font-size="11.00">Elitism — carry top individuals unchanged</text>
<text xml:space="preserve" text-anchor="middle" x="210.14" y="-608.46" font-family="Helvetica,sans-Serif" font-size="11.00">elite_idx = argsort(fitnesses)[:ELITISM_COUNT]</text>
<text xml:space="preserve" text-anchor="middle" x="210.14" y="-594.96" font-family="Helvetica,sans-Serif" font-size="11.00">ELITISM_COUNT = 2</text>
</g>
<!-- n_gen_check&#45;&gt;n_elites -->
<g id="edge9" class="edge">
<title>n_gen_check&#45;&gt;n_elites</title>
<path fill="none" stroke="black" d="M290.26,-721.95C290.26,-721.95 290.26,-648.55 290.26,-648.55"/>
<polygon fill="black" stroke="black" points="293.76,-648.55 290.26,-638.55 286.76,-648.55 293.76,-648.55"/>
<text xml:space="preserve" text-anchor="middle" x="345.01" y="-672.73" font-family="Helvetica,sans-Serif" font-size="10.00">NO</text>
<text xml:space="preserve" text-anchor="middle" x="345.01" y="-659.98" font-family="Helvetica,sans-Serif" font-size="10.00">(gen &lt; 200)</text>
</g>
<!-- n_final_eval -->
<g id="node16" class="node">
<title>n_final_eval</title>
<polygon fill="#cce5ff" stroke="black" points="658.65,-636.73 385.62,-636.73 385.62,-587.59 658.65,-587.59 658.65,-636.73"/>
<text xml:space="preserve" text-anchor="middle" x="522.14" y="-621.96" font-family="Helvetica,sans-Serif" font-size="11.00">Final evaluation pass</text>
<text xml:space="preserve" text-anchor="middle" x="522.14" y="-608.46" font-family="Helvetica,sans-Serif" font-size="11.00">(re&#45;evaluates last population;</text>
<text xml:space="preserve" text-anchor="middle" x="522.14" y="-594.96" font-family="Helvetica,sans-Serif" font-size="11.00"> captures improvements from last breed step)</text>
</g>
<!-- n_gen_check&#45;&gt;n_final_eval -->
<g id="edge10" class="edge">
<title>n_gen_check&#45;&gt;n_final_eval</title>
<path fill="none" stroke="black" d="M442.15,-722.46C442.15,-722.46 442.15,-648.3 442.15,-648.3"/>
<polygon fill="black" stroke="black" points="445.65,-648.3 442.15,-638.3 438.65,-648.3 445.65,-648.3"/>
<text xml:space="preserve" text-anchor="middle" x="472.01" y="-672.73" font-family="Helvetica,sans-Serif" font-size="10.00">YES</text>
<text xml:space="preserve" text-anchor="middle" x="472.01" y="-659.98" font-family="Helvetica,sans-Serif" font-size="10.00">(gen ≥ 200)</text>
</g>
<!-- n_select -->
<g id="node11" class="node">
<title>n_select</title>
<polygon fill="#ccffcc" stroke="black" points="320.28,-534.84 18,-534.84 18,-485.7 320.28,-485.7 320.28,-534.84"/>
<text xml:space="preserve" text-anchor="middle" x="169.14" y="-520.07" font-family="Helvetica,sans-Serif" font-size="11.00">Tournament selection (×2 → p1, p2)</text>
<text xml:space="preserve" text-anchor="middle" x="169.14" y="-506.57" font-family="Helvetica,sans-Serif" font-size="11.00">k = TOURNAMENT_SIZE = 5</text>
<text xml:space="preserve" text-anchor="middle" x="169.14" y="-493.07" font-family="Helvetica,sans-Serif" font-size="11.00">winner = argmin(fitness) over k random candidates</text>
</g>
<!-- n_elites&#45;&gt;n_select -->
<g id="edge11" class="edge">
<title>n_elites&#45;&gt;n_select</title>
<path fill="none" stroke="black" d="M195.83,-587.23C195.83,-587.23 195.83,-546.8 195.83,-546.8"/>
<polygon fill="black" stroke="black" points="199.33,-546.8 195.83,-536.8 192.33,-546.8 199.33,-546.8"/>
</g>
<!-- n_crossover -->
<g id="node12" class="node">
<title>n_crossover</title>
<polygon fill="#ccffcc" stroke="black" points="283.65,-437.95 34.62,-437.95 34.62,-375.31 283.65,-375.31 283.65,-437.95"/>
<text xml:space="preserve" text-anchor="middle" x="159.14" y="-423.18" font-family="Helvetica,sans-Serif" font-size="11.00">Uniform crossover (default)</text>
<text xml:space="preserve" text-anchor="middle" x="159.14" y="-409.68" font-family="Helvetica,sans-Serif" font-size="11.00">for each gene i:</text>
<text xml:space="preserve" text-anchor="middle" x="159.14" y="-396.18" font-family="Helvetica,sans-Serif" font-size="11.00"> &#160;&#160;&#160;child[i] = p1[i] if rand() &lt; 0.5 else p2[i]</text>
<text xml:space="preserve" text-anchor="middle" x="159.14" y="-382.68" font-family="Helvetica,sans-Serif" font-size="11.00">→ produces ONE child per call</text>
</g>
<!-- n_select&#45;&gt;n_crossover -->
<g id="edge12" class="edge">
<title>n_select&#45;&gt;n_crossover</title>
<path fill="none" stroke="black" d="M159.14,-485.45C159.14,-485.45 159.14,-449.84 159.14,-449.84"/>
<polygon fill="black" stroke="black" points="162.64,-449.84 159.14,-439.84 155.64,-449.84 162.64,-449.84"/>
</g>
<!-- n_mutate -->
<g id="node13" class="node">
<title>n_mutate</title>
<polygon fill="#ccffcc" stroke="black" points="244.65,-303.06 73.62,-303.06 73.62,-226.92 244.65,-226.92 244.65,-303.06"/>
<text xml:space="preserve" text-anchor="middle" x="159.14" y="-288.29" font-family="Helvetica,sans-Serif" font-size="11.00">Gaussian mutation</text>
<text xml:space="preserve" text-anchor="middle" x="159.14" y="-274.79" font-family="Helvetica,sans-Serif" font-size="11.00">for each gene i:</text>
<text xml:space="preserve" text-anchor="middle" x="159.14" y="-261.29" font-family="Helvetica,sans-Serif" font-size="11.00"> &#160;&#160;&#160;if rand() &lt; p_m = 0.10:</text>
<text xml:space="preserve" text-anchor="middle" x="159.14" y="-247.79" font-family="Helvetica,sans-Serif" font-size="11.00"> &#160;&#160;&#160;&#160;&#160;&#160;&#160;d_i += N(0, σ = 0.05)</text>
<text xml:space="preserve" text-anchor="middle" x="159.14" y="-234.29" font-family="Helvetica,sans-Serif" font-size="11.00"> &#160;&#160;&#160;&#160;&#160;&#160;&#160;d_i = clip(d_i, 0.0, 1.0)</text>
</g>
<!-- n_crossover&#45;&gt;n_mutate -->
<g id="edge13" class="edge">
<title>n_crossover&#45;&gt;n_mutate</title>
<path fill="none" stroke="black" d="M159.14,-374.84C159.14,-374.84 159.14,-314.99 159.14,-314.99"/>
<polygon fill="black" stroke="black" points="162.64,-314.99 159.14,-304.99 155.64,-314.99 162.64,-314.99"/>
</g>
<!-- n_breed_check -->
<g id="node14" class="node">
<title>n_breed_check</title>
<polygon fill="#ffe0b3" stroke="black" points="159.14,-185.92 18.11,-150.28 159.14,-114.64 300.17,-150.28 159.14,-185.92"/>
<text xml:space="preserve" text-anchor="middle" x="159.14" y="-153.33" font-family="Helvetica,sans-Serif" font-size="11.00">|offspring| &lt; POP_SIZE</text>
<text xml:space="preserve" text-anchor="middle" x="159.14" y="-139.83" font-family="Helvetica,sans-Serif" font-size="11.00">– ELITISM_COUNT?</text>
</g>
<!-- n_mutate&#45;&gt;n_breed_check -->
<g id="edge14" class="edge">
<title>n_mutate&#45;&gt;n_breed_check</title>
<path fill="none" stroke="black" d="M159.14,-226.47C159.14,-226.47 159.14,-197.69 159.14,-197.69"/>
<polygon fill="black" stroke="black" points="162.64,-197.69 159.14,-187.69 155.64,-197.69 162.64,-197.69"/>
</g>
<!-- n_breed_check&#45;&gt;n_select -->
<g id="edge15" class="edge">
<title>n_breed_check&#45;&gt;n_select</title>
<path fill="none" stroke="black" d="M291.91,-152.58C291.91,-152.58 291.91,-473.76 291.91,-473.76"/>
<polygon fill="black" stroke="black" points="288.41,-473.76 291.91,-483.76 295.41,-473.76 288.41,-473.76"/>
<text xml:space="preserve" text-anchor="middle" x="398.39" y="-339.06" font-family="Helvetica,sans-Serif" font-size="10.00">YES</text>
<text xml:space="preserve" text-anchor="middle" x="398.39" y="-326.31" font-family="Helvetica,sans-Serif" font-size="10.00">(more offspring needed)</text>
</g>
<!-- n_form_gen -->
<g id="node15" class="node">
<title>n_form_gen</title>
<polygon fill="#cce5ff" stroke="black" points="252.15,-49.14 66.12,-49.14 66.12,0 252.15,0 252.15,-49.14"/>
<text xml:space="preserve" text-anchor="middle" x="159.14" y="-34.37" font-family="Helvetica,sans-Serif" font-size="11.00">Form next generation</text>
<text xml:space="preserve" text-anchor="middle" x="159.14" y="-20.87" font-family="Helvetica,sans-Serif" font-size="11.00">population = elites + offspring</text>
<text xml:space="preserve" text-anchor="middle" x="159.14" y="-7.37" font-family="Helvetica,sans-Serif" font-size="11.00">increment generation counter</text>
</g>
<!-- n_breed_check&#45;&gt;n_form_gen -->
<g id="edge16" class="edge">
<title>n_breed_check&#45;&gt;n_form_gen</title>
<path fill="none" stroke="black" d="M159.14,-114.26C159.14,-114.26 159.14,-60.95 159.14,-60.95"/>
<polygon fill="black" stroke="black" points="162.64,-60.95 159.14,-50.95 155.64,-60.95 162.64,-60.95"/>
<text xml:space="preserve" text-anchor="middle" x="194.01" y="-85.14" font-family="Helvetica,sans-Serif" font-size="10.00">NO</text>
<text xml:space="preserve" text-anchor="middle" x="194.01" y="-72.39" font-family="Helvetica,sans-Serif" font-size="10.00">(offspring full)</text>
</g>
<!-- n_form_gen&#45;&gt;n_eval -->
<g id="edge17" class="edge">
<title>n_form_gen&#45;&gt;n_eval</title>
<path fill="none" stroke="black" stroke-dasharray="5,2" d="M65.65,-25C31.01,-25 0,-25 0,-25 0,-25 0,-1121 0,-1121 0,-1121 204.85,-1121 204.85,-1121"/>
<polygon fill="black" stroke="black" points="204.85,-1124.5 214.85,-1121 204.85,-1117.5 204.85,-1124.5"/>
<text xml:space="preserve" text-anchor="middle" x="675.76" y="-558.09" font-family="Helvetica,sans-Serif" font-size="10.00">next generation</text>
</g>
<!-- n_return -->
<g id="node17" class="node">
<title>n_return</title>
<polygon fill="#cce5ff" stroke="black" points="638.15,-528.27 410.12,-528.27 410.12,-492.27 638.15,-492.27 638.15,-528.27"/>
<text xml:space="preserve" text-anchor="middle" x="524.14" y="-513.32" font-family="Helvetica,sans-Serif" font-size="11.00">Return best individual</text>
<text xml:space="preserve" text-anchor="middle" x="524.14" y="-499.82" font-family="Helvetica,sans-Serif" font-size="11.00">(lowest fitness across all generations)</text>
</g>
<!-- n_final_eval&#45;&gt;n_return -->
<g id="edge18" class="edge">
<title>n_final_eval&#45;&gt;n_return</title>
<path fill="none" stroke="black" d="M524.14,-587.23C524.14,-587.23 524.14,-540.06 524.14,-540.06"/>
<polygon fill="black" stroke="black" points="527.64,-540.06 524.14,-530.06 520.64,-540.06 527.64,-540.06"/>
</g>
<!-- n_commands -->
<g id="node18" class="node">
<title>n_commands</title>
<polygon fill="#cce5ff" stroke="black" points="656.4,-444.7 393.88,-444.7 393.88,-368.56 656.4,-368.56 656.4,-444.7"/>
<text xml:space="preserve" text-anchor="middle" x="525.14" y="-429.93" font-family="Helvetica,sans-Serif" font-size="11.00">Reconstruct best trajectory at full resolution</text>
<text xml:space="preserve" text-anchor="middle" x="525.14" y="-416.43" font-family="Helvetica,sans-Serif" font-size="11.00">Compute speed profile (v, ds_m)</text>
<text xml:space="preserve" text-anchor="middle" x="525.14" y="-402.93" font-family="Helvetica,sans-Serif" font-size="11.00">Derive per&#45;waypoint commands:</text>
<text xml:space="preserve" text-anchor="middle" x="525.14" y="-389.43" font-family="Helvetica,sans-Serif" font-size="11.00"> &#160;position [x,y], speed_pxs, heading (rad),</text>
<text xml:space="preserve" text-anchor="middle" x="525.14" y="-375.93" font-family="Helvetica,sans-Serif" font-size="11.00"> &#160;throttle ∈ [0,1], brake ∈ [0,1]</text>
</g>
<!-- n_return&#45;&gt;n_commands -->
<g id="edge19" class="edge">
<title>n_return&#45;&gt;n_commands</title>
<path fill="none" stroke="black" d="M524.14,-492.22C524.14,-492.22 524.14,-456.59 524.14,-456.59"/>
<polygon fill="black" stroke="black" points="527.64,-456.59 524.14,-446.59 520.64,-456.59 527.64,-456.59"/>
</g>
<!-- n_best_json -->
<g id="node19" class="node">
<title>n_best_json</title>
<polygon fill="#cce5ff" stroke="black" points="635.78,-289.56 414.5,-289.56 414.5,-240.42 635.78,-240.42 635.78,-289.56"/>
<text xml:space="preserve" text-anchor="middle" x="525.14" y="-274.79" font-family="Helvetica,sans-Serif" font-size="11.00">Write best_line.json</text>
<text xml:space="preserve" text-anchor="middle" x="525.14" y="-261.29" font-family="Helvetica,sans-Serif" font-size="11.00">(version 2: chromosome, racing_line,</text>
<text xml:space="preserve" text-anchor="middle" x="525.14" y="-247.79" font-family="Helvetica,sans-Serif" font-size="11.00"> commands, lap_time_seconds)</text>
</g>
<!-- n_commands&#45;&gt;n_best_json -->
<g id="edge20" class="edge">
<title>n_commands&#45;&gt;n_best_json</title>
<path fill="none" stroke="black" d="M525.14,-368.3C525.14,-368.3 525.14,-301.47 525.14,-301.47"/>
<polygon fill="black" stroke="black" points="528.64,-301.47 525.14,-291.47 521.64,-301.47 528.64,-301.47"/>
</g>
<!-- n_complete_json -->
<g id="node20" class="node">
<title>n_complete_json</title>
<polygon fill="#cce5ff" stroke="black" points="660.15,-174.85 390.12,-174.85 390.12,-125.71 660.15,-125.71 660.15,-174.85"/>
<text xml:space="preserve" text-anchor="middle" x="525.14" y="-160.08" font-family="Helvetica,sans-Serif" font-size="11.00">Write current_best.json</text>
<text xml:space="preserve" text-anchor="middle" x="525.14" y="-146.58" font-family="Helvetica,sans-Serif" font-size="11.00">(status = &quot;complete&quot;, waypoints, commands)</text>
<text xml:space="preserve" text-anchor="middle" x="525.14" y="-133.08" font-family="Helvetica,sans-Serif" font-size="11.00">atomic: write → .tmp → rename</text>
</g>
<!-- n_best_json&#45;&gt;n_complete_json -->
<g id="edge21" class="edge">
<title>n_best_json&#45;&gt;n_complete_json</title>
<path fill="none" stroke="black" d="M525.14,-240.1C525.14,-240.1 525.14,-186.64 525.14,-186.64"/>
<polygon fill="black" stroke="black" points="528.64,-186.64 525.14,-176.64 521.64,-186.64 528.64,-186.64"/>
</g>
<!-- n_complete_json&#45;&gt;n_end -->
<g id="edge22" class="edge">
<title>n_complete_json&#45;&gt;n_end</title>
<path fill="none" stroke="black" d="M525.14,-125.44C525.14,-125.44 525.14,-54.35 525.14,-54.35"/>
<polygon fill="black" stroke="black" points="528.64,-54.35 525.14,-44.35 521.64,-54.35 528.64,-54.35"/>
</g>
</g>
</svg>
