<?xml version="1.0" encoding="UTF-8" standalone="no"?>
<!DOCTYPE svg PUBLIC "-//W3C//DTD SVG 1.1//EN"
 "http://www.w3.org/Graphics/SVG/1.1/DTD/svg11.dtd">
<!-- Generated by graphviz version 14.1.5 (0)
 -->
<!-- Title: system_architecture Pages: 1 -->
<svg width="4371pt" height="7668pt"
 viewBox="0.00 0.00 4371.00 7668.00" xmlns="http://www.w3.org/2000/svg" xmlns:xlink="http://www.w3.org/1999/xlink">
<g id="graph0" class="graph" transform="scale(4.16667 4.16667) rotate(0) translate(4 1836.28)">
<title>system_architecture</title>
<polygon fill="white" stroke="none" points="-4,4 -4,-1836.28 1045,-1836.28 1045,4 -4,4"/>
<g id="clust1" class="cluster">
<title>cluster_godot</title>
<polygon fill="#f5eeff" stroke="#7b4fa6" stroke-width="2" points="8,-8 8,-1824.28 421,-1824.28 421,-8 8,-8"/>
<text xml:space="preserve" text-anchor="middle" x="214.5" y="-1807.93" font-family="Helvetica,sans-Serif" font-size="13.00" fill="#4a0080">Godot &#160;(Game Engine)</text>
</g>
<g id="clust2" class="cluster">
<title>cluster_python</title>
<polygon fill="#edf6ff" stroke="#1a5fa6" stroke-width="2" points="442,-359.17 442,-1578 1033,-1578 1033,-359.17 442,-359.17"/>
<text xml:space="preserve" text-anchor="middle" x="737.5" y="-1561.65" font-family="Helvetica,sans-Serif" font-size="13.00" fill="#003366">Python &#160;(AI)</text>
</g>
<!-- g_button -->
<g id="node1" class="node">
<title>g_button</title>
<polygon fill="#e8d5ff" stroke="black" points="302.14,-1791.78 107.86,-1791.78 107.86,-1755.78 302.14,-1755.78 302.14,-1791.78"/>
<text xml:space="preserve" text-anchor="middle" x="205" y="-1776.83" font-family="Helvetica,sans-Serif" font-size="11.00">Player presses</text>
<text xml:space="preserve" text-anchor="middle" x="205" y="-1763.33" font-family="Helvetica,sans-Serif" font-size="11.00">&quot;AI New&quot; or &quot;AI Improve&quot; button</text>
</g>
<!-- g_improve_check -->
<g id="node2" class="node">
<title>g_improve_check</title>
<polygon fill="#ffe0b3" stroke="black" points="205,-1706.78 42.22,-1671.14 205,-1635.5 367.78,-1671.14 205,-1706.78"/>
<text xml:space="preserve" text-anchor="middle" x="205" y="-1674.19" font-family="Helvetica,sans-Serif" font-size="11.00">mode == &quot;improve&quot;</text>
<text xml:space="preserve" text-anchor="middle" x="205" y="-1660.69" font-family="Helvetica,sans-Serif" font-size="11.00">AND best_line.json exists?</text>
</g>
<!-- g_button&#45;&gt;g_improve_check -->
<g id="edge1" class="edge">
<title>g_button&#45;&gt;g_improve_check</title>
<path fill="none" stroke="black" d="M205,-1755.71C205,-1745.47 205,-1731.91 205,-1718.7"/>
<polygon fill="black" stroke="black" points="208.5,-1718.79 205,-1708.79 201.5,-1718.79 208.5,-1718.79"/>
</g>
<!-- g_improve_err -->
<g id="node3" class="node">
<title>g_improve_err</title>
<polygon fill="#ffe0e0" stroke="black" points="185.76,-1552.07 16.23,-1552.07 16.23,-1502.93 185.76,-1502.93 185.76,-1552.07"/>
<text xml:space="preserve" text-anchor="middle" x="101" y="-1537.3" font-family="Helvetica,sans-Serif" font-size="11.00">Show HUD message:</text>
<text xml:space="preserve" text-anchor="middle" x="101" y="-1523.8" font-family="Helvetica,sans-Serif" font-size="11.00">&quot;No saved line to improve&quot;</text>
<text xml:space="preserve" text-anchor="middle" x="101" y="-1510.3" font-family="Helvetica,sans-Serif" font-size="11.00">(abort — no Python launch)</text>
</g>
<!-- g_improve_check&#45;&gt;g_improve_err -->
<g id="edge2" class="edge">
<title>g_improve_check&#45;&gt;g_improve_err</title>
<path fill="none" stroke="black" d="M181.66,-1640.17C174.63,-1631.02 166.94,-1620.89 160,-1611.5 147.91,-1595.13 134.76,-1576.7 123.95,-1561.37"/>
<polygon fill="black" stroke="black" points="127.04,-1559.68 118.43,-1553.52 121.32,-1563.71 127.04,-1559.68"/>
<text xml:space="preserve" text-anchor="middle" x="205" y="-1602" font-family="Helvetica,sans-Serif" font-size="10.00">AI Improve</text>
<text xml:space="preserve" text-anchor="middle" x="205" y="-1589.25" font-family="Helvetica,sans-Serif" font-size="10.00">AND no saved line</text>
</g>
<!-- g_kill -->
<g id="node4" class="node">
<title>g_kill</title>
<polygon fill="#e8d5ff" stroke="black" points="412.64,-1545.5 221.36,-1545.5 221.36,-1509.5 412.64,-1509.5 412.64,-1545.5"/>
<text xml:space="preserve" text-anchor="middle" x="317" y="-1530.55" font-family="Helvetica,sans-Serif" font-size="11.00">Kill any running Python process</text>
<text xml:space="preserve" text-anchor="middle" x="317" y="-1517.05" font-family="Helvetica,sans-Serif" font-size="11.00">OS.kill(ai_pid)</text>
</g>
<!-- g_improve_check&#45;&gt;g_kill -->
<g id="edge3" class="edge">
<title>g_improve_check&#45;&gt;g_kill</title>
<path fill="none" stroke="black" d="M230.56,-1640.92C238.51,-1631.62 247.24,-1621.22 255,-1611.5 269.82,-1592.94 285.85,-1571.43 297.9,-1554.97"/>
<polygon fill="black" stroke="black" points="300.55,-1557.28 303.6,-1547.14 294.89,-1553.16 300.55,-1557.28"/>
<text xml:space="preserve" text-anchor="middle" x="284.34" y="-1595.62" font-family="Helvetica,sans-Serif" font-size="10.00">else</text>
</g>
<!-- g_export_track -->
<g id="node5" class="node">
<title>g_export_track</title>
<polygon fill="#e8d5ff" stroke="black" points="349.01,-1453.93 36.99,-1453.93 36.99,-1391.29 349.01,-1391.29 349.01,-1453.93"/>
<text xml:space="preserve" text-anchor="middle" x="193" y="-1439.16" font-family="Helvetica,sans-Serif" font-size="11.00">Export track data via Curve2D.get_baked_points()</text>
<text xml:space="preserve" text-anchor="middle" x="193" y="-1425.66" font-family="Helvetica,sans-Serif" font-size="11.00">Compute outer + inner boundary polygons</text>
<text xml:space="preserve" text-anchor="middle" x="193" y="-1412.16" font-family="Helvetica,sans-Serif" font-size="11.00">(Geometry2D.offset_polygon ± corridor_radius)</text>
<text xml:space="preserve" text-anchor="middle" x="193" y="-1398.66" font-family="Helvetica,sans-Serif" font-size="11.00">corridor_radius = track_width/2 + kerb_width = 25 px</text>
</g>
<!-- g_kill&#45;&gt;g_export_track -->
<g id="edge4" class="edge">
<title>g_kill&#45;&gt;g_export_track</title>
<path fill="none" stroke="black" d="M295.97,-1509.05C280.27,-1496.02 258.22,-1477.73 238.56,-1461.41"/>
<polygon fill="black" stroke="black" points="240.82,-1458.74 230.89,-1455.05 236.35,-1464.13 240.82,-1458.74"/>
</g>
<!-- g_write_track -->
<g id="node6" class="node">
<title>g_write_track</title>
<polygon fill="#e8d5ff" stroke="black" points="348.64,-1330.54 109.36,-1330.54 109.36,-1254.4 348.64,-1254.4 348.64,-1330.54"/>
<text xml:space="preserve" text-anchor="middle" x="229" y="-1315.77" font-family="Helvetica,sans-Serif" font-size="11.00">Write &#160;pythonAI/track_data.json</text>
<text xml:space="preserve" text-anchor="middle" x="229" y="-1302.27" font-family="Helvetica,sans-Serif" font-size="11.00">{ version, wall_dist_px, track_width_px,</text>
<text xml:space="preserve" text-anchor="middle" x="229" y="-1288.77" font-family="Helvetica,sans-Serif" font-size="11.00"> &#160;kerb_width_px, track_edge_dist_px,</text>
<text xml:space="preserve" text-anchor="middle" x="229" y="-1275.27" font-family="Helvetica,sans-Serif" font-size="11.00"> &#160;pixels_per_meter, centerline[ ],</text>
<text xml:space="preserve" text-anchor="middle" x="229" y="-1261.77" font-family="Helvetica,sans-Serif" font-size="11.00"> &#160;outer_boundary[ ], inner_boundary[ ] }</text>
</g>
<!-- g_export_track&#45;&gt;g_write_track -->
<g id="edge5" class="edge">
<title>g_export_track&#45;&gt;g_write_track</title>
<path fill="none" stroke="black" d="M201.62,-1390.92C205.79,-1376.1 210.88,-1357.97 215.54,-1341.39"/>
<polygon fill="black" stroke="black" points="218.78,-1342.8 218.11,-1332.22 212.04,-1340.91 218.78,-1342.8"/>
</g>
<!-- g_launch -->
<g id="node7" class="node">
<title>g_launch</title>
<polygon fill="#e8d5ff" stroke="black" points="370.01,-1205.4 93.99,-1205.4 93.99,-1129.26 370.01,-1129.26 370.01,-1205.4"/>
<text xml:space="preserve" text-anchor="middle" x="232" y="-1190.63" font-family="Helvetica,sans-Serif" font-size="11.00">Launch Python as background process</text>
<text xml:space="preserve" text-anchor="middle" x="232" y="-1177.13" font-family="Helvetica,sans-Serif" font-size="11.00">OS.create_process(</text>
<text xml:space="preserve" text-anchor="middle" x="232" y="-1163.63" font-family="Helvetica,sans-Serif" font-size="11.00"> &#160;&quot;pythonAI/.venv/bin/python3&quot;,</text>
<text xml:space="preserve" text-anchor="middle" x="232" y="-1150.13" font-family="Helvetica,sans-Serif" font-size="11.00"> &#160;[&quot;pythonAI/main.py&quot;, &quot;&#45;&#45;mode&quot;, new|improve]</text>
<text xml:space="preserve" text-anchor="middle" x="232" y="-1136.63" font-family="Helvetica,sans-Serif" font-size="11.00">)</text>
</g>
<!-- g_write_track&#45;&gt;g_launch -->
<g id="edge6" class="edge">
<title>g_write_track&#45;&gt;g_launch</title>
<path fill="none" stroke="black" d="M229.91,-1254.19C230.2,-1242.37 230.52,-1229.14 230.82,-1216.66"/>
<polygon fill="black" stroke="black" points="234.31,-1217.08 231.06,-1207 227.32,-1216.91 234.31,-1217.08"/>
</g>
<!-- p_load_track -->
<g id="node18" class="node">
<title>p_load_track</title>
<polygon fill="#cce5ff" stroke="black" points="832.14,-1453.93 529.86,-1453.93 529.86,-1391.29 832.14,-1391.29 832.14,-1453.93"/>
<text xml:space="preserve" text-anchor="middle" x="681" y="-1439.16" font-family="Helvetica,sans-Serif" font-size="11.00">Load track geometry</text>
<text xml:space="preserve" text-anchor="middle" x="681" y="-1425.66" font-family="Helvetica,sans-Serif" font-size="11.00">Read &#160;pythonAI/track_data.json</text>
<text xml:space="preserve" text-anchor="middle" x="681" y="-1412.16" font-family="Helvetica,sans-Serif" font-size="11.00">→ centerline, outer_boundary, inner_boundary,</text>
<text xml:space="preserve" text-anchor="middle" x="681" y="-1398.66" font-family="Helvetica,sans-Serif" font-size="11.00"> &#160;corridor_radius_px (= track_edge_dist_px = 25 px)</text>
</g>
<!-- g_write_track&#45;&gt;p_load_track -->
<g id="edge29" class="edge">
<title>g_write_track&#45;&gt;p_load_track</title>
<path fill="none" stroke="#444444" stroke-width="2" stroke-dasharray="5,2" d="M421,-1328.55C423.67,-1328.96 426.39,-1329.36 429.14,-1329.76"/>
<polygon fill="#444444" stroke="#444444" stroke-width="2" points="428.61,-1333.22 439.01,-1331.18 429.61,-1326.29 428.61,-1333.22"/>
<text xml:space="preserve" text-anchor="middle" x="733.75" y="-1357.79" font-family="Helvetica,sans-Serif" font-size="10.00">writes &#160;pythonAI/track_data.json</text>
</g>
<!-- g_timer -->
<g id="node8" class="node">
<title>g_timer</title>
<polygon fill="#e8d5ff" stroke="black" points="318.64,-1055.19 145.36,-1055.19 145.36,-1019.19 318.64,-1019.19 318.64,-1055.19"/>
<text xml:space="preserve" text-anchor="middle" x="232" y="-1040.24" font-family="Helvetica,sans-Serif" font-size="11.00">Timer node fires every 0.5 s</text>
<text xml:space="preserve" text-anchor="middle" x="232" y="-1026.74" font-family="Helvetica,sans-Serif" font-size="11.00">(ai_poll_timer)</text>
</g>
<!-- g_launch&#45;&gt;g_timer -->
<g id="edge7" class="edge">
<title>g_launch&#45;&gt;g_timer</title>
<path fill="none" stroke="black" d="M232,-1128.92C232,-1109.14 232,-1085.23 232,-1066.92"/>
<polygon fill="black" stroke="black" points="235.5,-1067.05 232,-1057.05 228.5,-1067.05 235.5,-1067.05"/>
</g>
<!-- p_start -->
<g id="node17" class="node">
<title>p_start</title>
<polygon fill="#cce5ff" stroke="black" points="662.14,-1545.5 485.86,-1545.5 485.86,-1509.5 662.14,-1509.5 662.14,-1545.5"/>
<text xml:space="preserve" text-anchor="middle" x="574" y="-1530.55" font-family="Helvetica,sans-Serif" font-size="11.00">main.py starts</text>
<text xml:space="preserve" text-anchor="middle" x="574" y="-1517.05" font-family="Helvetica,sans-Serif" font-size="11.00">Parse &#45;&#45;mode &#160;new | improve</text>
</g>
<!-- g_launch&#45;&gt;p_start -->
<g id="edge30" class="edge">
<title>g_launch&#45;&gt;p_start</title>
<path fill="none" stroke="#444444" stroke-width="2" stroke-dasharray="5,2" d="M312.21,-1205.78C332.61,-1218.65 352.76,-1234.85 367,-1254.4 397.53,-1296.32 369.5,-1323.02 396.5,-1367.29 431.84,-1425.24 494.73,-1474.27 535.38,-1502.03"/>
<polygon fill="#444444" stroke="#444444" stroke-width="2" points="533.19,-1504.78 543.44,-1507.44 537.08,-1498.96 533.19,-1504.78"/>
<text xml:space="preserve" text-anchor="middle" x="514.25" y="-1357.79" font-family="Helvetica,sans-Serif" font-size="10.00">OS.create_process → spawns Python subprocess</text>
</g>
<!-- g_read_json -->
<g id="node9" class="node">
<title>g_read_json</title>
<polygon fill="#e8d5ff" stroke="black" points="371.89,-916.37 92.11,-916.37 92.11,-867.23 371.89,-867.23 371.89,-916.37"/>
<text xml:space="preserve" text-anchor="middle" x="232" y="-901.6" font-family="Helvetica,sans-Serif" font-size="11.00">Read &#160;pythonAI/results/current_best.json</text>
<text xml:space="preserve" text-anchor="middle" x="232" y="-888.1" font-family="Helvetica,sans-Serif" font-size="11.00">Parse: generation, total_generations,</text>
<text xml:space="preserve" text-anchor="middle" x="232" y="-874.6" font-family="Helvetica,sans-Serif" font-size="11.00"> &#160;&#160;&#160;&#160;&#160;&#160;best_time, status, waypoints[, commands]</text>
</g>
<!-- g_timer&#45;&gt;g_read_json -->
<g id="edge8" class="edge">
<title>g_timer&#45;&gt;g_read_json</title>
<path fill="none" stroke="black" d="M232,-1018.89C232,-996.5 232,-956.94 232,-928.09"/>
<polygon fill="black" stroke="black" points="235.5,-928.36 232,-918.36 228.5,-928.36 235.5,-928.36"/>
</g>
<!-- g_new_gen -->
<g id="node10" class="node">
<title>g_new_gen</title>
<polygon fill="#ffe0b3" stroke="black" points="226,-764.41 88.77,-746.41 226,-728.41 363.23,-746.41 226,-764.41"/>
<text xml:space="preserve" text-anchor="middle" x="226" y="-742.71" font-family="Helvetica,sans-Serif" font-size="11.00">New generation arrived?</text>
</g>
<!-- g_read_json&#45;&gt;g_new_gen -->
<g id="edge9" class="edge">
<title>g_read_json&#45;&gt;g_new_gen</title>
<path fill="none" stroke="black" d="M231,-866.8C229.95,-841.77 228.31,-802.55 227.19,-775.95"/>
<polygon fill="black" stroke="black" points="230.7,-776.07 226.79,-766.23 223.71,-776.37 230.7,-776.07"/>
</g>
<!-- g_update_hud -->
<g id="node11" class="node">
<title>g_update_hud</title>
<polygon fill="#e8d5ff" stroke="black" points="251.76,-641.59 16.23,-641.59 16.23,-592.45 251.76,-592.45 251.76,-641.59"/>
<text xml:space="preserve" text-anchor="middle" x="134" y="-626.82" font-family="Helvetica,sans-Serif" font-size="11.00">Update HUD labels</text>
<text xml:space="preserve" text-anchor="middle" x="134" y="-613.32" font-family="Helvetica,sans-Serif" font-size="11.00"> &#160;Gen: X / 200 &#160;| &#160;GA Best: MM:SS.mmm</text>
<text xml:space="preserve" text-anchor="middle" x="134" y="-599.82" font-family="Helvetica,sans-Serif" font-size="11.00"> &#160;Status: Evolving…</text>
</g>
<!-- g_new_gen&#45;&gt;g_update_hud -->
<g id="edge10" class="edge">
<title>g_new_gen&#45;&gt;g_update_hud</title>
<path fill="none" stroke="black" d="M214.53,-729.53C200.44,-710.02 176.15,-676.38 157.92,-651.15"/>
<polygon fill="black" stroke="black" points="160.85,-649.22 152.15,-643.16 155.17,-653.31 160.85,-649.22"/>
<text xml:space="preserve" text-anchor="middle" x="194.51" y="-675.22" font-family="Helvetica,sans-Serif" font-size="10.00">YES</text>
</g>
<!-- g_status_check -->
<g id="node12" class="node">
<title>g_status_check</title>
<polygon fill="#ffe0b3" stroke="black" points="287,-420.81 202.22,-385.17 287,-349.53 371.78,-385.17 287,-420.81"/>
<text xml:space="preserve" text-anchor="middle" x="287" y="-388.22" font-family="Helvetica,sans-Serif" font-size="11.00">status ==</text>
<text xml:space="preserve" text-anchor="middle" x="287" y="-374.72" font-family="Helvetica,sans-Serif" font-size="11.00">&quot;complete&quot;?</text>
</g>
<!-- g_new_gen&#45;&gt;g_status_check -->
<g id="edge11" class="edge">
<title>g_new_gen&#45;&gt;g_status_check</title>
<path fill="none" stroke="black" d="M234.95,-729.09C245.42,-709.12 262.29,-673.97 270,-641.59 287.09,-569.79 289.16,-483.66 288.51,-432.01"/>
<polygon fill="black" stroke="black" points="292.01,-432.04 288.34,-422.1 285.01,-432.16 292.01,-432.04"/>
<text xml:space="preserve" text-anchor="middle" x="312.5" y="-558.95" font-family="Helvetica,sans-Serif" font-size="10.00">NO</text>
<text xml:space="preserve" text-anchor="middle" x="312.5" y="-546.2" font-family="Helvetica,sans-Serif" font-size="10.00">(same gen)</text>
</g>
<!-- g_update_line -->
<g id="node13" class="node">
<title>g_update_line</title>
<polygon fill="#e8d5ff" stroke="black" points="242.14,-512.38 47.86,-512.38 47.86,-476.38 242.14,-476.38 242.14,-512.38"/>
<text xml:space="preserve" text-anchor="middle" x="145" y="-497.43" font-family="Helvetica,sans-Serif" font-size="11.00">Redraw cyan racing&#45;line overlay</text>
<text xml:space="preserve" text-anchor="middle" x="145" y="-483.93" font-family="Helvetica,sans-Serif" font-size="11.00">(Line2D — ai_racing_line_node)</text>
</g>
<!-- g_update_hud&#45;&gt;g_update_line -->
<g id="edge12" class="edge">
<title>g_update_hud&#45;&gt;g_update_line</title>
<path fill="none" stroke="black" d="M136.17,-592.19C137.96,-572.55 140.51,-544.66 142.4,-523.86"/>
<polygon fill="black" stroke="black" points="145.88,-524.33 143.3,-514.05 138.9,-523.69 145.88,-524.33"/>
</g>
<!-- g_status_check&#45;&gt;g_timer -->
<g id="edge14" class="edge">
<title>g_status_check&#45;&gt;g_timer</title>
<path fill="none" stroke="black" stroke-dasharray="5,2" d="M302.21,-414.94C317.52,-445.65 340.1,-496.23 349,-542.95 361.33,-607.68 311.19,-633.38 343,-691.09 352.64,-708.58 370.66,-698 381,-715.09 436.65,-807.1 446.46,-865.35 390,-956.87 373.06,-984.32 343.41,-1002.6 314.32,-1014.62"/>
<polygon fill="black" stroke="black" points="313.12,-1011.33 305.07,-1018.21 315.66,-1017.85 313.12,-1011.33"/>
<text xml:space="preserve" text-anchor="middle" x="388" y="-675.22" font-family="Helvetica,sans-Serif" font-size="10.00">NO — keep polling</text>
</g>
<!-- g_stop_timer -->
<g id="node14" class="node">
<title>g_stop_timer</title>
<polygon fill="#e8d5ff" stroke="black" points="351.89,-288.78 222.11,-288.78 222.11,-252.78 351.89,-252.78 351.89,-288.78"/>
<text xml:space="preserve" text-anchor="middle" x="287" y="-273.83" font-family="Helvetica,sans-Serif" font-size="11.00">Stop poll timer</text>
<text xml:space="preserve" text-anchor="middle" x="287" y="-260.33" font-family="Helvetica,sans-Serif" font-size="11.00">_stop_ai_poll_timer()</text>
</g>
<!-- g_status_check&#45;&gt;g_stop_timer -->
<g id="edge15" class="edge">
<title>g_status_check&#45;&gt;g_stop_timer</title>
<path fill="none" stroke="black" d="M287,-349.23C287,-333.46 287,-315.08 287,-300.19"/>
<polygon fill="black" stroke="black" points="290.5,-300.62 287,-290.62 283.5,-300.62 290.5,-300.62"/>
<text xml:space="preserve" text-anchor="middle" x="296" y="-316.03" font-family="Helvetica,sans-Serif" font-size="10.00">YES</text>
</g>
<!-- g_update_line&#45;&gt;g_status_check -->
<g id="edge13" class="edge">
<title>g_update_line&#45;&gt;g_status_check</title>
<path fill="none" stroke="black" d="M168.13,-475.92C189.76,-459.59 222.48,-434.88 248.12,-415.53"/>
<polygon fill="black" stroke="black" points="250.13,-418.39 256,-409.57 245.91,-412.8 250.13,-418.39"/>
</g>
<!-- g_spawn_car -->
<g id="node15" class="node">
<title>g_spawn_car</title>
<polygon fill="#e8d5ff" stroke="black" points="412.89,-203.78 151.11,-203.78 151.11,-141.14 412.89,-141.14 412.89,-203.78"/>
<text xml:space="preserve" text-anchor="middle" x="282" y="-189.01" font-family="Helvetica,sans-Serif" font-size="11.00">Spawn AI car</text>
<text xml:space="preserve" text-anchor="middle" x="282" y="-175.51" font-family="Helvetica,sans-Serif" font-size="11.00">(car_scene.instantiate())</text>
<text xml:space="preserve" text-anchor="middle" x="282" y="-162.01" font-family="Helvetica,sans-Serif" font-size="11.00">Scale physics to track size</text>
<text xml:space="preserve" text-anchor="middle" x="282" y="-148.51" font-family="Helvetica,sans-Serif" font-size="11.00">Assign ai_waypoints, ai_speeds, ai_headings</text>
</g>
<!-- g_stop_timer&#45;&gt;g_spawn_car -->
<g id="edge16" class="edge">
<title>g_stop_timer&#45;&gt;g_spawn_car</title>
<path fill="none" stroke="black" d="M286.11,-252.56C285.57,-242.18 284.86,-228.48 284.18,-215.4"/>
<polygon fill="black" stroke="black" points="287.69,-215.48 283.67,-205.67 280.7,-215.84 287.69,-215.48"/>
</g>
<!-- g_ai_drive -->
<g id="node16" class="node">
<title>g_ai_drive</title>
<polygon fill="#e8d5ff" stroke="black" points="412.51,-92.14 151.49,-92.14 151.49,-16 412.51,-16 412.51,-92.14"/>
<text xml:space="preserve" text-anchor="middle" x="282" y="-77.37" font-family="Helvetica,sans-Serif" font-size="11.00">Car drives the line &#160;(ai_mode = true)</text>
<text xml:space="preserve" text-anchor="middle" x="282" y="-63.87" font-family="Helvetica,sans-Serif" font-size="11.00">── Steering: pure&#45;pursuit &#160;(to_local + atan2)</text>
<text xml:space="preserve" text-anchor="middle" x="282" y="-50.37" font-family="Helvetica,sans-Serif" font-size="11.00">── Speed: target = ai_speeds[cur_idx]</text>
<text xml:space="preserve" text-anchor="middle" x="282" y="-36.87" font-family="Helvetica,sans-Serif" font-size="11.00"> &#160;&#160;full throttle / coast / full brake</text>
<text xml:space="preserve" text-anchor="middle" x="282" y="-23.37" font-family="Helvetica,sans-Serif" font-size="11.00">── Physics: shared _physics_process(delta)</text>
</g>
<!-- g_spawn_car&#45;&gt;g_ai_drive -->
<g id="edge17" class="edge">
<title>g_spawn_car&#45;&gt;g_ai_drive</title>
<path fill="none" stroke="black" d="M282,-140.88C282,-129.54 282,-116.37 282,-103.8"/>
<polygon fill="black" stroke="black" points="285.5,-104.02 282,-94.02 278.5,-104.02 285.5,-104.02"/>
</g>
<!-- p_start&#45;&gt;p_load_track -->
<g id="edge18" class="edge">
<title>p_start&#45;&gt;p_load_track</title>
<path fill="none" stroke="black" d="M592.15,-1509.05C605.58,-1496.14 624.38,-1478.06 641.23,-1461.86"/>
<polygon fill="black" stroke="black" points="643.44,-1464.59 648.22,-1455.13 638.59,-1459.54 643.44,-1464.59"/>
</g>
<!-- p_build_track -->
<g id="node19" class="node">
<title>p_build_track</title>
<polygon fill="#cce5ff" stroke="black" points="1025.01,-1323.79 664.99,-1323.79 664.99,-1261.15 1025.01,-1261.15 1025.01,-1323.79"/>
<text xml:space="preserve" text-anchor="middle" x="845" y="-1309.02" font-family="Helvetica,sans-Serif" font-size="11.00">Build Track object &#160;(track.py)</text>
<text xml:space="preserve" text-anchor="middle" x="845" y="-1295.52" font-family="Helvetica,sans-Serif" font-size="11.00">Resample centerline to N_SECTIONS = 50 points</text>
<text xml:space="preserve" text-anchor="middle" x="845" y="-1282.02" font-family="Helvetica,sans-Serif" font-size="11.00">Compute cross&#45;section left/right boundary endpoints</text>
<text xml:space="preserve" text-anchor="middle" x="845" y="-1268.52" font-family="Helvetica,sans-Serif" font-size="11.00">(corridor_radius from centreline → gene [0,1] always on&#45;track)</text>
</g>
<!-- p_load_track&#45;&gt;p_build_track -->
<g id="edge19" class="edge">
<title>p_load_track&#45;&gt;p_build_track</title>
<path fill="none" stroke="black" d="M814.03,-1390.86C823.91,-1384.43 832.81,-1376.66 840,-1367.29 846.85,-1358.37 849.6,-1346.91 850.25,-1335.69"/>
<polygon fill="black" stroke="black" points="853.75,-1335.73 850.25,-1325.73 846.75,-1335.73 853.75,-1335.73"/>
</g>
<!-- p_init_check -->
<g id="node20" class="node">
<title>p_init_check</title>
<polygon fill="#ffe0b3" stroke="black" points="845,-1202.97 682.22,-1167.33 845,-1131.69 1007.78,-1167.33 845,-1202.97"/>
<text xml:space="preserve" text-anchor="middle" x="845" y="-1170.38" font-family="Helvetica,sans-Serif" font-size="11.00">mode == &quot;improve&quot;</text>
<text xml:space="preserve" text-anchor="middle" x="845" y="-1156.88" font-family="Helvetica,sans-Serif" font-size="11.00">AND best_line.json exists?</text>
</g>
<!-- p_build_track&#45;&gt;p_init_check -->
<g id="edge20" class="edge">
<title>p_build_track&#45;&gt;p_init_check</title>
<path fill="none" stroke="black" d="M845,-1260.71C845,-1246.86 845,-1230.21 845,-1214.88"/>
<polygon fill="black" stroke="black" points="848.5,-1214.99 845,-1204.99 841.5,-1214.99 848.5,-1214.99"/>
</g>
<!-- p_seed -->
<g id="node21" class="node">
<title>p_seed</title>
<polygon fill="#cce5ff" stroke="black" points="720.39,-1068.51 449.61,-1068.51 449.61,-1005.87 720.39,-1005.87 720.39,-1068.51"/>
<text xml:space="preserve" text-anchor="middle" x="585" y="-1053.74" font-family="Helvetica,sans-Serif" font-size="11.00">Seed population from saved chromosome</text>
<text xml:space="preserve" text-anchor="middle" x="585" y="-1040.24" font-family="Helvetica,sans-Serif" font-size="11.00">pop[0] = saved chromosome (exact)</text>
<text xml:space="preserve" text-anchor="middle" x="585" y="-1026.74" font-family="Helvetica,sans-Serif" font-size="11.00">pop[1…] = chromosome + N(0, 0.10), clipped</text>
<text xml:space="preserve" text-anchor="middle" x="585" y="-1013.24" font-family="Helvetica,sans-Serif" font-size="11.00">POPULATION_SIZE = 100</text>
</g>
<!-- p_init_check&#45;&gt;p_seed -->
<g id="edge21" class="edge">
<title>p_init_check&#45;&gt;p_seed</title>
<path fill="none" stroke="black" d="M795.79,-1142.08C756.73,-1122.83 701.54,-1095.63 657.44,-1073.89"/>
<polygon fill="black" stroke="black" points="659.22,-1070.87 648.7,-1069.58 656.12,-1077.14 659.22,-1070.87"/>
<text xml:space="preserve" text-anchor="middle" x="724" y="-1095.76" font-family="Helvetica,sans-Serif" font-size="10.00">YES</text>
</g>
<!-- p_random_init -->
<g id="node22" class="node">
<title>p_random_init</title>
<polygon fill="#cce5ff" stroke="black" points="1025.26,-1061.76 756.74,-1061.76 756.74,-1012.62 1025.26,-1012.62 1025.26,-1061.76"/>
<text xml:space="preserve" text-anchor="middle" x="891" y="-1046.99" font-family="Helvetica,sans-Serif" font-size="11.00">Random population</text>
<text xml:space="preserve" text-anchor="middle" x="891" y="-1033.49" font-family="Helvetica,sans-Serif" font-size="11.00">POPULATION_SIZE = 100 × N_SECTIONS = 50</text>
<text xml:space="preserve" text-anchor="middle" x="891" y="-1019.99" font-family="Helvetica,sans-Serif" font-size="11.00">genes ~ Uniform(0, 1)</text>
</g>
<!-- p_init_check&#45;&gt;p_random_init -->
<g id="edge22" class="edge">
<title>p_init_check&#45;&gt;p_random_init</title>
<path fill="none" stroke="black" d="M856.61,-1133.99C863.33,-1115.28 871.78,-1091.73 878.63,-1072.66"/>
<polygon fill="black" stroke="black" points="881.85,-1074.04 881.93,-1063.44 875.26,-1071.67 881.85,-1074.04"/>
<text xml:space="preserve" text-anchor="middle" x="878.25" y="-1095.76" font-family="Helvetica,sans-Serif" font-size="10.00">NO</text>
</g>
<!-- p_ga_loop -->
<g id="node23" class="node">
<title>p_ga_loop</title>
<polygon fill="#b3d9ff" stroke="black" points="809.76,-956.87 556.24,-956.87 556.24,-826.73 809.76,-826.73 809.76,-956.87"/>
<text xml:space="preserve" text-anchor="middle" x="683" y="-942.1" font-family="Helvetica,sans-Serif" font-size="11.00">┌─────────────────────────────────┐</text>
<text xml:space="preserve" text-anchor="middle" x="683" y="-928.6" font-family="Helvetica,sans-Serif" font-size="11.00">│ &#160;GA Training Loop &#160;(genetic.py) │</text>
<text xml:space="preserve" text-anchor="middle" x="683" y="-915.1" font-family="Helvetica,sans-Serif" font-size="11.00">│ &#160;see Fig. 1 — GA Flowchart &#160;&#160;&#160;&#160;&#160;│</text>
<text xml:space="preserve" text-anchor="middle" x="683" y="-901.6" font-family="Helvetica,sans-Serif" font-size="11.00">│ &#160;GENERATIONS = 200 &#160;&#160;&#160;&#160;&#160;&#160;&#160;&#160;&#160;&#160;&#160;&#160;&#160;│</text>
<text xml:space="preserve" text-anchor="middle" x="683" y="-888.1" font-family="Helvetica,sans-Serif" font-size="11.00">│ &#160;───────────────────────────── &#160;│</text>
<text xml:space="preserve" text-anchor="middle" x="683" y="-874.6" font-family="Helvetica,sans-Serif" font-size="11.00">│ &#160;After each generation: &#160;&#160;&#160;&#160;&#160;&#160;&#160;&#160;│</text>
<text xml:space="preserve" text-anchor="middle" x="683" y="-861.1" font-family="Helvetica,sans-Serif" font-size="11.00">│ &#160;→ write current_best.json &#160;&#160;&#160;&#160;&#160;│</text>
<text xml:space="preserve" text-anchor="middle" x="683" y="-847.6" font-family="Helvetica,sans-Serif" font-size="11.00">│ &#160;&#160;&#160;(status = &quot;evolving&quot;) &#160;&#160;&#160;&#160;&#160;&#160;&#160;│</text>
<text xml:space="preserve" text-anchor="middle" x="683" y="-834.1" font-family="Helvetica,sans-Serif" font-size="11.00">└─────────────────────────────────┘</text>
</g>
<!-- p_seed&#45;&gt;p_ga_loop -->
<g id="edge23" class="edge">
<title>p_seed&#45;&gt;p_ga_loop</title>
<path fill="none" stroke="black" d="M606.02,-1005.43C613.88,-993.93 623.19,-980.32 632.56,-966.6"/>
<polygon fill="black" stroke="black" points="635.44,-968.59 638.19,-958.36 629.66,-964.64 635.44,-968.59"/>
</g>
<!-- p_random_init&#45;&gt;p_ga_loop -->
<g id="edge24" class="edge">
<title>p_random_init&#45;&gt;p_ga_loop</title>
<path fill="none" stroke="black" d="M856.19,-1012.19C836.62,-998.7 811.06,-981.08 785.62,-963.54"/>
<polygon fill="black" stroke="black" points="787.73,-960.75 777.51,-957.95 783.76,-966.51 787.73,-960.75"/>
</g>
<!-- p_ga_loop&#45;&gt;g_read_json -->
<g id="edge31" class="edge">
<title>p_ga_loop&#45;&gt;g_read_json</title>
<path fill="none" stroke="#444444" stroke-width="2" stroke-dasharray="5,2" d="M442,-891.8C439.28,-891.8 436.56,-891.8 433.84,-891.8"/>
<polygon fill="#444444" stroke="#444444" stroke-width="2" points="434.03,-888.3 424.03,-891.8 434.03,-895.3 434.03,-888.3"/>
<text xml:space="preserve" text-anchor="middle" x="464.06" y="-923.55" font-family="Helvetica,sans-Serif" font-size="10.00">writes &#160;pythonAI/results/current_best.json</text>
<text xml:space="preserve" text-anchor="middle" x="464.06" y="-910.8" font-family="Helvetica,sans-Serif" font-size="10.00">(every generation, atomic rename)</text>
<text xml:space="preserve" text-anchor="middle" x="464.06" y="-898.05" font-family="Helvetica,sans-Serif" font-size="10.00">Godot polls every 0.5 s</text>
</g>
<!-- p_complete -->
<g id="node24" class="node">
<title>p_complete</title>
<polygon fill="#cce5ff" stroke="black" points="832.64,-777.73 533.36,-777.73 533.36,-715.09 832.64,-715.09 832.64,-777.73"/>
<text xml:space="preserve" text-anchor="middle" x="683" y="-762.96" font-family="Helvetica,sans-Serif" font-size="11.00">GA complete — best chromosome found</text>
<text xml:space="preserve" text-anchor="middle" x="683" y="-749.46" font-family="Helvetica,sans-Serif" font-size="11.00">Reconstruct trajectory at N_TRAJECTORY = 150 pts</text>
<text xml:space="preserve" text-anchor="middle" x="683" y="-735.96" font-family="Helvetica,sans-Serif" font-size="11.00">Compute speed profile + per&#45;waypoint commands</text>
<text xml:space="preserve" text-anchor="middle" x="683" y="-722.46" font-family="Helvetica,sans-Serif" font-size="11.00"> &#160;(position, speed_pxs, heading, throttle, brake)</text>
</g>
<!-- p_ga_loop&#45;&gt;p_complete -->
<g id="edge25" class="edge">
<title>p_ga_loop&#45;&gt;p_complete</title>
<path fill="none" stroke="black" d="M683,-826.24C683,-813.77 683,-801.01 683,-789.49"/>
<polygon fill="black" stroke="black" points="686.5,-789.51 683,-779.51 679.5,-789.51 686.5,-789.51"/>
</g>
<!-- p_write_best -->
<g id="node25" class="node">
<title>p_write_best</title>
<polygon fill="#cce5ff" stroke="black" points="805.14,-641.59 526.86,-641.59 526.86,-592.45 805.14,-592.45 805.14,-641.59"/>
<text xml:space="preserve" text-anchor="middle" x="666" y="-626.82" font-family="Helvetica,sans-Serif" font-size="11.00">Write &#160;pythonAI/results/best_line.json</text>
<text xml:space="preserve" text-anchor="middle" x="666" y="-613.32" font-family="Helvetica,sans-Serif" font-size="11.00">{ version=2, lap_time_seconds,</text>
<text xml:space="preserve" text-anchor="middle" x="666" y="-599.82" font-family="Helvetica,sans-Serif" font-size="11.00"> &#160;chromosome[ ], racing_line[ ], commands[ ] }</text>
</g>
<!-- p_complete&#45;&gt;p_write_best -->
<g id="edge26" class="edge">
<title>p_complete&#45;&gt;p_write_best</title>
<path fill="none" stroke="black" d="M682.41,-714.94C681.79,-700 680.53,-681.78 678,-665.59 677.36,-661.48 676.52,-657.2 675.59,-652.97"/>
<polygon fill="black" stroke="black" points="679.06,-652.42 673.33,-643.51 672.25,-654.05 679.06,-652.42"/>
</g>
<!-- p_write_complete -->
<g id="node26" class="node">
<title>p_write_complete</title>
<polygon fill="#cce5ff" stroke="black" points="699.89,-518.95 450.11,-518.95 450.11,-469.81 699.89,-469.81 699.89,-518.95"/>
<text xml:space="preserve" text-anchor="middle" x="575" y="-504.18" font-family="Helvetica,sans-Serif" font-size="11.00">Write &#160;pythonAI/results/current_best.json</text>
<text xml:space="preserve" text-anchor="middle" x="575" y="-490.68" font-family="Helvetica,sans-Serif" font-size="11.00">{ …, status = &quot;complete&quot;, commands[ ] }</text>
<text xml:space="preserve" text-anchor="middle" x="575" y="-477.18" font-family="Helvetica,sans-Serif" font-size="11.00">atomic: write .tmp → rename</text>
</g>
<!-- p_write_best&#45;&gt;p_write_complete -->
<g id="edge27" class="edge">
<title>p_write_best&#45;&gt;p_write_complete</title>
<path fill="none" stroke="black" d="M648.02,-592.19C634.25,-573.93 615.09,-548.53 599.85,-528.32"/>
<polygon fill="black" stroke="black" points="602.67,-526.25 593.85,-520.37 597.08,-530.46 602.67,-526.25"/>
</g>
<!-- p_write_complete&#45;&gt;g_read_json -->
<g id="edge32" class="edge">
<title>p_write_complete&#45;&gt;g_read_json</title>
<path fill="none" stroke="#1a7a1a" stroke-width="2.5" stroke-dasharray="5,2" d="M442,-675.67C435.68,-685.88 430.96,-694.83 426.9,-703.12"/>
<polygon fill="#1a7a1a" stroke="#1a7a1a" stroke-width="2.5" points="423.77,-701.53 422.63,-712.07 430.09,-704.55 423.77,-701.53"/>
<text xml:space="preserve" text-anchor="middle" x="558.75" y="-681.59" font-family="Helvetica,sans-Serif" font-size="10.00">final write &#160;current_best.json</text>
<text xml:space="preserve" text-anchor="middle" x="558.75" y="-668.84" font-family="Helvetica,sans-Serif" font-size="10.00">(status = &quot;complete&quot;, includes commands[ ])</text>
</g>
<!-- p_exit -->
<g id="node27" class="node">
<title>p_exit</title>
<polygon fill="#cce5ff" stroke="black" points="677.26,-403.17 456.74,-403.17 456.74,-367.17 677.26,-367.17 677.26,-403.17"/>
<text xml:space="preserve" text-anchor="middle" x="567" y="-388.22" font-family="Helvetica,sans-Serif" font-size="11.00">Write &#160;pythonAI/results/best_line.png</text>
<text xml:space="preserve" text-anchor="middle" x="567" y="-374.72" font-family="Helvetica,sans-Serif" font-size="11.00">Exit process (Python exits cleanly)</text>
</g>
<!-- p_write_complete&#45;&gt;p_exit -->
<g id="edge28" class="edge">
<title>p_write_complete&#45;&gt;p_exit</title>
<path fill="none" stroke="black" d="M573.2,-469.32C571.99,-453.07 570.39,-431.55 569.11,-414.47"/>
<polygon fill="black" stroke="black" points="572.64,-414.7 568.4,-404.99 565.66,-415.22 572.64,-414.7"/>
</g>
<!-- p_exit&#45;&gt;g_stop_timer -->
<g id="edge33" class="edge">
<title>p_exit&#45;&gt;g_stop_timer</title>
<path fill="none" stroke="#444444" stroke-width="2" stroke-dasharray="5,2" d="M523.56,-366.73C474.82,-347.17 395.64,-315.39 342.47,-294.05"/>
<polygon fill="#444444" stroke="#444444" stroke-width="2" points="343.94,-290.86 333.35,-290.39 341.33,-297.36 343.94,-290.86"/>
<text xml:space="preserve" text-anchor="middle" x="491.73" y="-316.03" font-family="Helvetica,sans-Serif" font-size="10.00">process exits &#160;(ai_pid cleared)</text>
</g>
</g>
</svg>
